<?xml version="1.0" standalone="no"?>
<!DOCTYPE svg PUBLIC "-//W3C//DTD SVG 20010904//EN"
 "http://www.w3.org/TR/2001/REC-SVG-20010904/DTD/svg10.dtd">
<svg version="1.0" xmlns="http://www.w3.org/2000/svg"
 width="985.000000pt" height="1280.000000pt" viewBox="0 0 985.000000 1280.000000"
 preserveAspectRatio="xMidYMid meet">
<metadata>
Created by potrace 1.15, written by Peter Selinger 2001-2017
</metadata>
<g transform="translate(0.000000,1280.000000) scale(0.100000,-0.100000)"
fill="#000000" stroke="none">
<path d="M396 12768 c-19 -18 -115 -126 -215 -240 l-181 -208 0 -6120 0 -6121
23 -23 24 -24 1289 -6 c709 -3 1973 -8 2809 -11 836 -3 2279 -8 3207 -11
l1688 -6 377 248 c208 137 390 261 406 276 l27 26 0 6091 c0 4442 -3 6097 -11
6114 -6 14 -22 30 -36 36 -17 8 -1294 11 -4699 11 l-4674 0 -34 -32z m9284
-2153 l0 -2015 -4560 0 -4560 0 0 2015 0 2015 4560 0 4560 0 0 -2015z m-9308
-137 c-1 -1331 1 -2005 8 -2012 7 -7 10 -1315 10 -3922 l0 -3912 -110 -137
-110 -137 0 5950 0 5951 97 110 c53 61 99 111 102 111 3 0 5 -901 3 -2002z
m9308 -5933 l0 -3885 -4560 0 -4560 0 0 3885 0 3885 4560 0 4560 0 0 -3885z
m-225 -4071 c-11 -8 -120 -81 -243 -161 l-222 -145 -3143 11 c-1728 6 -3608
11 -4177 11 -569 0 -1119 3 -1221 7 l-187 6 115 144 115 143 4492 0 c4019 -1
4489 -2 4471 -16z"/>
<path d="M5825 12335 l-25 -24 0 -379 0 -379 23 -21 23 -22 1733 0 1732 0 24
25 25 24 0 373 c-1 393 -1 392 -47 416 -16 9 -453 12 -1743 12 l-1721 0 -24
-25z m3365 -400 l0 -255 -1615 0 -1615 0 0 255 0 255 1615 0 1615 0 0 -255z"/>
<path d="M1030 11207 c-51 -26 -50 3 -47 -970 l2 -909 28 -24 28 -24 4135 0
4135 0 24 25 25 24 0 919 0 919 -26 24 -26 24 -4126 2 c-3298 2 -4132 0 -4152
-10z m8160 -957 l0 -800 -4020 0 -4020 0 0 800 0 800 4020 0 4020 0 0 -800z"/>
<path d="M1042 7963 c-7 -3 -19 -18 -27 -33 -12 -24 -15 -87 -15 -360 l0 -332
29 -29 30 -29 656 2 657 3 19 24 c18 22 19 43 19 370 l0 348 -23 21 -23 22
-655 -1 c-360 0 -660 -3 -667 -6z m1208 -388 l0 -225 -540 0 -540 0 0 225 0
225 540 0 540 0 0 -225z"/>
<path d="M2565 7945 l-25 -24 0 -340 c0 -187 3 -347 6 -356 17 -44 26 -45 704
-45 l642 0 29 29 29 29 0 342 0 341 -25 24 -24 25 -656 0 -656 0 -24 -25z
m1215 -370 l0 -225 -535 0 -535 0 0 228 0 227 535 -3 535 -2 0 -225z"/>
<path d="M4086 7939 l-27 -31 3 -339 c3 -337 3 -339 26 -361 l23 -23 632 -3
c347 -2 647 0 665 3 23 4 39 16 53 38 18 30 19 49 17 364 l-3 331 -24 26 -24
26 -658 0 -657 0 -26 -31z m1224 -364 l0 -225 -540 0 -540 0 0 225 0 225 540
0 540 0 0 -225z"/>
<path d="M5625 7945 l-25 -24 0 -343 c1 -361 1 -362 47 -386 16 -9 193 -12
658 -12 465 0 642 3 658 12 46 24 46 25 47 386 l0 343 -25 24 -24 25 -656 0
-656 0 -24 -25z m1215 -370 l0 -225 -535 0 -535 0 0 225 0 225 535 0 535 0 0
-225z"/>
<path d="M7272 7947 c-22 -23 -22 -28 -22 -369 0 -326 1 -347 19 -369 l19 -24
914 -3 c502 -1 923 0 935 3 12 3 32 15 43 27 19 21 20 34 20 365 l0 344 -25
24 -24 25 -929 0 -929 0 -21 -23z m1758 -372 l0 -225 -810 0 -810 0 0 225 0
225 810 0 810 0 0 -225z"/>
<path d="M1013 7046 l-28 -24 -3 -639 c-1 -351 0 -648 3 -661 3 -12 14 -31 25
-42 20 -20 36 -20 680 -20 640 0 661 1 679 19 11 11 23 35 26 53 3 18 5 316 3
661 l-3 629 -28 24 -28 24 -649 0 -649 0 -28 -24z m1215 -683 l-3 -538 -535 0
-535 0 -3 538 -2 537 540 0 540 0 -2 -537z"/>
<path d="M2565 7058 c-45 -26 -44 -10 -45 -694 0 -644 0 -652 21 -678 l20 -26
664 0 664 0 20 26 c21 26 21 34 21 678 -1 688 1 669 -47 694 -31 17 -1289 16
-1318 0z m1195 -698 l0 -540 -535 0 -535 0 0 540 0 540 535 0 535 0 0 -540z"/>
<path d="M4073 7046 l-28 -24 -3 -629 c-2 -345 0 -643 3 -661 3 -17 16 -41 27
-52 21 -20 36 -20 680 -20 642 0 658 0 678 20 11 11 22 30 25 42 3 13 4 310 3
661 l-3 639 -28 24 -28 24 -649 0 -649 0 -28 -24z m1215 -683 l-3 -538 -535 0
-535 0 -3 538 -2 537 540 0 540 0 -2 -537z"/>
<path d="M5609 7041 l-29 -29 0 -652 0 -651 25 -24 24 -25 659 0 659 0 21 23
22 23 0 651 c0 358 -3 659 -6 668 -17 44 -26 45 -704 45 l-642 0 -29 -29z
m1211 -681 l0 -540 -535 0 -535 0 0 540 0 540 535 0 535 0 0 -540z"/>
<path d="M7272 7037 l-22 -23 0 -658 0 -657 25 -24 24 -25 916 0 c973 0 961
-1 979 45 3 9 6 308 6 664 0 641 0 649 -21 675 l-20 26 -933 0 -933 0 -21 -23z
m1758 -677 l0 -540 -810 0 -810 0 0 533 c0 294 3 537 7 540 3 4 368 7 810 7
l803 0 0 -540z"/>
<path d="M1003 5536 l-28 -24 0 -655 0 -655 24 -26 24 -26 657 0 657 0 24 26
24 26 0 655 0 655 -28 24 -28 24 -649 0 -649 0 -28 -24z m1217 -681 l0 -535
-540 0 -540 0 0 535 0 535 540 0 540 0 0 -535z"/>
<path d="M2535 5535 l-25 -24 0 -656 0 -656 25 -24 24 -25 656 0 656 0 24 25
25 24 0 656 0 656 -25 24 -24 25 -656 0 -656 0 -24 -25z m1215 -680 l0 -535
-535 0 -535 0 0 535 0 535 535 0 535 0 0 -535z"/>
<path d="M4063 5536 l-28 -24 0 -657 0 -657 28 -24 28 -24 654 0 653 0 26 31
26 31 0 643 0 643 -26 31 -26 31 -653 0 -654 0 -28 -24z m1217 -681 l0 -535
-540 0 -540 0 0 535 0 535 540 0 540 0 0 -535z"/>
<path d="M5609 5547 c-39 -29 -39 -38 -39 -692 0 -673 1 -682 45 -699 9 -3
309 -6 666 -6 l650 0 24 25 25 24 0 656 0 656 -25 24 -24 25 -653 0 c-498 -1
-657 -4 -669 -13z m1211 -692 l0 -535 -540 0 -540 0 0 535 0 535 540 0 540 0
0 -535z"/>
<path d="M7280 5547 c-51 -26 -50 -16 -47 -709 l2 -647 23 -23 23 -23 930 0
931 0 24 28 24 28 0 649 0 649 -24 28 -24 28 -919 2 c-724 2 -923 0 -943 -10z
m1740 -697 l0 -540 -810 0 -810 0 0 540 0 540 810 0 810 0 0 -540z"/>
<path d="M1019 4015 c-14 -8 -31 -27 -38 -42 -8 -21 -11 -200 -9 -670 l3 -642
23 -23 23 -23 659 0 659 0 23 23 23 23 3 642 c2 470 -1 649 -9 670 -24 58 -10
57 -701 57 -527 -1 -637 -3 -659 -15z m1201 -695 l0 -540 -540 0 -540 0 0 540
0 540 540 0 540 0 0 -540z"/>
<path d="M2564 4020 c-56 -22 -54 1 -54 -703 l0 -649 29 -29 29 -29 645 0 645
0 31 26 31 26 0 657 0 658 -26 24 -26 24 -641 2 c-353 1 -652 -2 -663 -7z
m1186 -700 l0 -540 -535 0 -535 0 0 540 0 540 535 0 535 0 0 -540z"/>
<path d="M4079 4015 c-15 -8 -32 -29 -38 -46 -8 -22 -11 -224 -11 -651 0 -676
0 -673 56 -696 22 -9 191 -12 671 -10 l642 3 23 23 23 23 0 659 0 659 -23 23
-23 23 -647 2 c-549 2 -651 0 -673 -12z m1201 -695 l0 -540 -540 0 -540 0 0
533 c0 294 3 537 7 540 3 4 246 7 540 7 l533 0 0 -540z"/>
<path d="M5624 4020 c-56 -22 -54 0 -54 -702 l0 -647 24 -28 24 -28 639 -3
c351 -1 648 0 661 3 12 3 31 14 42 25 20 20 20 36 20 678 -1 709 1 681 -54
702 -34 12 -1271 13 -1302 0z m1191 -700 l0 -535 -537 -3 -538 -2 0 540 0 540
538 -2 537 -3 0 -535z"/>
<path d="M7280 4017 c-13 -7 -30 -24 -37 -37 -10 -20 -12 -320 -10 -1452 l2
-1427 23 -23 23 -23 930 0 931 0 24 28 24 28 0 1429 0 1429 -24 28 -24 28
-919 2 c-724 2 -923 0 -943 -10z m1740 -1477 l0 -1320 -810 0 -810 0 0 1320 0
1320 810 0 810 0 0 -1320z"/>
<path d="M999 2444 l-24 -26 0 -655 0 -655 28 -24 28 -24 649 0 649 0 28 24
28 24 0 655 0 655 -24 26 -24 26 -657 0 -657 0 -24 -26z m1221 -679 l0 -535
-540 0 -540 0 0 535 0 535 540 0 540 0 0 -535z"/>
<path d="M2535 2445 l-25 -24 0 -656 0 -656 25 -24 24 -25 656 0 656 0 24 25
25 24 0 656 0 656 -25 24 -24 25 -656 0 -656 0 -24 -25z m1215 -680 l0 -535
-535 0 -535 0 0 535 0 535 535 0 535 0 0 -535z"/>
<path d="M4063 2446 l-28 -24 0 -657 0 -657 28 -24 28 -24 654 0 653 0 26 31
26 31 0 643 0 643 -26 31 -26 31 -653 0 -654 0 -28 -24z m1217 -681 l0 -535
-540 0 -540 0 0 535 0 535 540 0 540 0 0 -535z"/>
<path d="M5612 2463 c-7 -3 -19 -18 -27 -33 -13 -25 -15 -123 -15 -665 0 -673
1 -682 45 -699 9 -3 309 -6 666 -6 l650 0 24 25 25 24 0 656 0 656 -25 24 -24
25 -653 -1 c-359 0 -659 -3 -666 -6z m1208 -698 l0 -535 -540 0 -540 0 0 535
0 535 540 0 540 0 0 -535z"/>
</g>
</svg>
